<mxfile host="Electron" modified="2023-10-30T12:47:12.832Z" agent="Mozilla/5.0 (Windows NT 10.0; Win64; x64) AppleWebKit/537.36 (KHTML, like Gecko) draw.io/21.8.2 Chrome/114.0.5735.289 Electron/25.8.1 Safari/537.36" etag="oL6V7Iv79UP8ZIG2JFsx" version="21.8.2" type="device">
  <diagram name="Page-1" id="pazxvdb_-VQVQj2k6pjy">
    <mxGraphModel dx="1036" dy="702" grid="1" gridSize="10" guides="1" tooltips="1" connect="1" arrows="1" fold="1" page="1" pageScale="1" pageWidth="1169" pageHeight="1654" math="0" shadow="0">
      <root>
        <mxCell id="0" />
        <mxCell id="1" parent="0" />
        <mxCell id="4tAjdOZ-st2yQ9ejm-Wt-1" value="&lt;p style=&quot;margin:0px;margin-top:4px;margin-left:10px;text-align:left;&quot;&gt;&lt;b&gt;std&lt;/b&gt; displayDriver&lt;/p&gt;" style="html=1;shape=mxgraph.sysml.package;labelX=108.8;align=left;spacingLeft=10;overflow=fill;recursiveResize=0;container=0;" parent="1" vertex="1">
          <mxGeometry x="40" y="50" width="730" height="790" as="geometry" />
        </mxCell>
        <mxCell id="4tAjdOZ-st2yQ9ejm-Wt-2" value="Start" style="edgeStyle=orthogonalEdgeStyle;rounded=0;orthogonalLoop=1;jettySize=auto;html=1;align=left;" parent="1" source="4tAjdOZ-st2yQ9ejm-Wt-3" target="FEYtaKGGeJnVMuC72WNT-1" edge="1">
          <mxGeometry x="0.0435" y="12" relative="1" as="geometry">
            <mxPoint as="offset" />
            <mxPoint x="194.5" y="367" as="targetPoint" />
          </mxGeometry>
        </mxCell>
        <mxCell id="4tAjdOZ-st2yQ9ejm-Wt-3" value="" style="shape=ellipse;html=1;fillColor=strokeColor;fontSize=18;fontColor=#ffffff;" parent="1" vertex="1">
          <mxGeometry x="174.5" y="220" width="40" height="40" as="geometry" />
        </mxCell>
        <mxCell id="4tAjdOZ-st2yQ9ejm-Wt-4" value="&lt;p style=&quot;margin:0px;margin-top:4px;text-align:center;&quot;&gt;&lt;b&gt;&amp;lt;&amp;lt;interface&amp;gt;&amp;gt;&lt;/b&gt;&lt;/p&gt;&lt;hr&gt;&lt;p&gt;&lt;/p&gt;&lt;p style=&quot;margin:0px;margin-left:8px;text-align:left;&quot;&gt;&lt;b style=&quot;background-color: initial;&quot;&gt;*taskName,&lt;/b&gt;&lt;br&gt;&lt;/p&gt;&lt;p style=&quot;margin:0px;margin-left:8px;text-align:left;&quot;&gt;&lt;b style=&quot;background-color: initial;&quot;&gt;taskPriority,&lt;/b&gt;&lt;/p&gt;&lt;p style=&quot;margin:0px;margin-left:8px;text-align:left;&quot;&gt;&lt;b style=&quot;background-color: initial;&quot;&gt;taskSizeBytes,&lt;/b&gt;&lt;/p&gt;&lt;p style=&quot;margin:0px;margin-left:8px;text-align:left;&quot;&gt;&lt;b style=&quot;background-color: initial;&quot;&gt;taskCoreNumber,&lt;/b&gt;&lt;/p&gt;&lt;p style=&quot;margin:0px;margin-left:8px;text-align:left;&quot;&gt;&lt;b style=&quot;background-color: initial;&quot;&gt;oled,&lt;/b&gt;&lt;/p&gt;&lt;p style=&quot;margin:0px;margin-left:8px;text-align:left;&quot;&gt;&lt;b style=&quot;background-color: initial;&quot;&gt;start()&lt;/b&gt;&lt;/p&gt;" style="shape=mxgraph.sysml.simpleState;html=1;overflow=fill;whiteSpace=wrap;align=center;" parent="1" vertex="1">
          <mxGeometry x="174.5" y="60" width="548.5" height="130" as="geometry" />
        </mxCell>
        <mxCell id="4tAjdOZ-st2yQ9ejm-Wt-5" style="edgeStyle=orthogonalEdgeStyle;rounded=0;orthogonalLoop=1;jettySize=auto;html=1;" parent="1" source="4tAjdOZ-st2yQ9ejm-Wt-6" target="4tAjdOZ-st2yQ9ejm-Wt-4" edge="1">
          <mxGeometry relative="1" as="geometry" />
        </mxCell>
        <mxCell id="4tAjdOZ-st2yQ9ejm-Wt-6" value="" style="shape=ellipse;html=1;fillColor=strokeColor;fontSize=18;fontColor=#ffffff;" parent="1" vertex="1">
          <mxGeometry x="80" y="105" width="40" height="40" as="geometry" />
        </mxCell>
        <mxCell id="4tAjdOZ-st2yQ9ejm-Wt-7" value="" style="line;strokeWidth=1;fillColor=none;align=left;verticalAlign=middle;spacingTop=-1;spacingLeft=3;spacingRight=3;rotatable=0;labelPosition=right;points=[];portConstraint=eastwest;strokeColor=inherit;" parent="1" vertex="1">
          <mxGeometry x="40" y="170" width="730" height="60" as="geometry" />
        </mxCell>
        <mxCell id="FEYtaKGGeJnVMuC72WNT-1" value="set screen width to 128&lt;br&gt;set screen height to 64&lt;br&gt;initialize Adafruit_SSD1306 oled" style="rounded=1;whiteSpace=wrap;html=1;" parent="1" vertex="1">
          <mxGeometry x="92.88" y="320" width="203.25" height="60" as="geometry" />
        </mxCell>
        <mxCell id="FEYtaKGGeJnVMuC72WNT-10" value="" style="endArrow=classic;html=1;rounded=0;" parent="1" source="FEYtaKGGeJnVMuC72WNT-1" edge="1">
          <mxGeometry width="50" height="50" relative="1" as="geometry">
            <mxPoint x="510" y="620" as="sourcePoint" />
            <mxPoint x="194.50124994791895" y="440.00124994791895" as="targetPoint" />
          </mxGeometry>
        </mxCell>
      </root>
    </mxGraphModel>
  </diagram>
</mxfile>
